<svg width="20" height="20" viewBox="0 0 20 20" fill="none" xmlns="http://www.w3.org/2000/svg">
<path d="M3.33337 6.66671H3.33421M16.6667 6.66671H16.6675M16.6667 10H16.6675M16.6667 13.3334H16.6675M16.6667 16.6667H16.6675M13.3334 16.6667H13.3342M3.33337 3.33337H3.33421M6.66671 3.33337H6.66754M10 3.33337H10.0009M13.3334 3.33337H13.3342M16.6667 3.33337H16.6675" stroke="#0C0534" stroke-width="1.66667" stroke-linecap="round" stroke-linejoin="round"/>
<path fill-rule="evenodd" clip-rule="evenodd" d="M2.5 10.8334C2.5 10.1703 2.76339 9.53445 3.23223 9.06561C3.70107 8.59677 4.33696 8.33337 5 8.33337H9.16667C9.82971 8.33337 10.4656 8.59677 10.9344 9.06561C11.4033 9.53445 11.6667 10.1703 11.6667 10.8334V11.6667H10.8333C9.88333 11.6667 8.64667 11.9 7.625 12.6667C6.56333 13.4634 5.83333 14.7625 5.83333 16.6667V17.5H5C4.33696 17.5 3.70107 17.2366 3.23223 16.7678C2.76339 16.299 2.5 15.6631 2.5 15V10.8334ZM7.5 17.5H9.16667C9.82971 17.5 10.4656 17.2366 10.9344 16.7678C11.4033 16.299 11.6667 15.6631 11.6667 15V13.3334H10.8333C10.1167 13.3334 9.27 13.5167 8.625 14C8.02 14.4534 7.5 15.2375 7.5 16.6667V17.5ZM5 10C4.77899 10 4.56702 10.0878 4.41074 10.2441C4.25446 10.4004 4.16667 10.6124 4.16667 10.8334C4.16667 11.0544 4.25446 11.2663 4.41074 11.4226C4.56702 11.5789 4.77899 11.6667 5 11.6667H5.00833C5.22935 11.6667 5.44131 11.5789 5.59759 11.4226C5.75387 11.2663 5.84167 11.0544 5.84167 10.8334C5.84167 10.6124 5.75387 10.4004 5.59759 10.2441C5.44131 10.0878 5.22935 10 5.00833 10H5Z" fill="#0C0534"/>
</svg>
