<svg width="28" height="28" viewBox="0 0 28 28" fill="none" xmlns="http://www.w3.org/2000/svg">
<path fill-rule="evenodd" clip-rule="evenodd" d="M23.9498 7.10373C24.2615 7.93065 24.4269 8.80549 24.4386 9.68911C24.5037 10.8005 24.504 11.164 24.5063 13.9772L24.5063 14.0164C24.5063 16.8666 24.4911 17.2224 24.441 18.3448C24.4235 19.2186 24.259 20.0796 23.9521 20.8963C23.6816 21.5936 23.2687 22.2269 22.7398 22.7558C22.2109 23.2847 21.5776 23.6976 20.8802 23.9682C20.064 24.2746 19.2016 24.4399 18.3299 24.4571C17.2157 24.5224 16.8505 24.5224 14.0014 24.5224C11.1524 24.5224 10.7966 24.5072 9.67303 24.4571C8.79962 24.4283 7.9375 24.2508 7.12382 23.932C6.42621 23.6621 5.7926 23.2495 5.26346 22.7208C4.73432 22.192 4.32129 21.5587 4.05076 20.8613C3.74392 20.0435 3.57942 19.1825 3.56192 18.3098C3.49658 17.1944 3.49658 16.8304 3.49658 13.9814C3.49658 11.1323 3.51175 10.7765 3.56192 9.65294C3.57839 8.78156 3.74372 7.9194 4.05076 7.10373C4.32083 6.40612 4.73356 5.77256 5.26252 5.2436C5.79148 4.71464 6.42504 4.30191 7.12265 4.03184C7.93857 3.72555 8.80053 3.55986 9.67186 3.54183C10.7861 3.47766 11.1512 3.47766 14.0003 3.47766C16.8493 3.47766 17.2052 3.49166 18.3275 3.54183C19.1993 3.55973 20.0616 3.72542 20.8779 4.03184C21.5754 4.3021 22.2089 4.71489 22.7378 5.24383C23.2667 5.77277 23.6795 6.40623 23.9498 7.10373ZM8.59968 13.9755C8.59968 16.9552 11.0136 19.3691 13.9933 19.3691C15.4238 19.3691 16.7956 18.8009 17.8071 17.7894C18.8186 16.7779 19.3869 15.406 19.3869 13.9755C19.3869 12.5451 18.8186 11.1732 17.8071 10.1617C16.7956 9.15018 15.4238 8.58192 13.9933 8.58192C11.0136 8.58192 8.59968 10.9958 8.59968 13.9755ZM19.1201 9.54469C19.2727 9.60784 19.4363 9.64026 19.6016 9.64011C20.2957 9.64011 20.8581 9.07777 20.8581 8.38242C20.8581 8.21733 20.8256 8.05387 20.7624 7.90135C20.6992 7.74883 20.6066 7.61024 20.4899 7.49351C20.3731 7.37678 20.2346 7.28418 20.082 7.22101C19.9295 7.15783 19.7661 7.12531 19.601 7.12531C19.4359 7.12531 19.2724 7.15783 19.1199 7.22101C18.9674 7.28418 18.8288 7.37678 18.7121 7.49351C18.5953 7.61024 18.5027 7.74883 18.4396 7.90135C18.3764 8.05387 18.3439 8.21733 18.3439 8.38242C18.3437 8.54763 18.3761 8.71124 18.4393 8.8639C18.5024 9.01656 18.5951 9.15527 18.7119 9.27208C18.8287 9.3889 18.9674 9.48154 19.1201 9.54469ZM17.497 13.9757C17.497 15.9106 15.9284 17.4792 13.9934 17.4792C12.0585 17.4792 10.4899 15.9106 10.4899 13.9757C10.4899 12.0407 12.0585 10.4721 13.9934 10.4721C15.9284 10.4721 17.497 12.0407 17.497 13.9757Z" fill="#0C0534"/>
</svg>
