<svg width="44" height="44" viewBox="0 0 44 44" fill="none" xmlns="http://www.w3.org/2000/svg">
<rect width="44" height="44" rx="7.33333" fill="white"/>
<path d="M27.335 17.59C26.917 16.82 26.312 16.237 25.52 15.841C24.75 15.423 23.837 15.214 22.781 15.214C20.955 15.214 19.492 15.819 18.392 17.029C17.292 18.217 16.742 19.812 16.742 21.814C16.742 23.948 17.314 25.62 18.458 26.83C19.624 28.018 21.219 28.612 23.243 28.612C24.629 28.612 25.795 28.26 26.741 27.556C27.709 26.852 28.413 25.84 28.853 24.52H21.692V20.362H33.968V25.609C33.55 27.017 32.835 28.326 31.823 29.536C30.833 30.746 29.568 31.725 28.028 32.473C26.488 33.221 24.75 33.595 22.814 33.595C20.526 33.595 18.48 33.1 16.676 32.11C14.894 31.098 13.497 29.701 12.485 27.919C11.495 26.137 11 24.102 11 21.814C11 19.526 11.495 17.491 12.485 15.709C13.497 13.905 14.894 12.508 16.676 11.518C18.458 10.506 20.493 10 22.781 10C25.553 10 27.885 10.671 29.777 12.013C31.691 13.355 32.956 15.214 33.572 17.59H27.335Z" fill="#0C0534"/>
</svg>
