<svg width="16" height="16" viewBox="0 0 16 16" fill="none" xmlns="http://www.w3.org/2000/svg">
<path d="M6.66683 12C7.85015 11.9998 8.99937 11.6037 9.9315 10.8747L12.8622 13.8054L13.8048 12.8627L10.8742 9.93204C11.6035 8.99982 11.9999 7.85033 12.0002 6.66671C12.0002 3.72604 9.6075 1.33337 6.66683 1.33337C3.72616 1.33337 1.3335 3.72604 1.3335 6.66671C1.3335 9.60737 3.72616 12 6.66683 12ZM6.66683 2.66671C8.87283 2.66671 10.6668 4.46071 10.6668 6.66671C10.6668 8.87271 8.87283 10.6667 6.66683 10.6667C4.46083 10.6667 2.66683 8.87271 2.66683 6.66671C2.66683 4.46071 4.46083 2.66671 6.66683 2.66671Z" fill="#3D375D"/>
</svg>
