<svg width="28" height="28" viewBox="0 0 28 28" fill="none" xmlns="http://www.w3.org/2000/svg">
<path d="M26.2045 6.99988C25.3061 7.40822 24.3378 7.67656 23.3344 7.8049C24.3611 7.18655 25.1545 6.20653 25.5278 5.02818C24.5595 5.61152 23.4861 6.01986 22.3544 6.2532C21.4327 5.24985 20.1377 4.6665 18.6677 4.6665C15.926 4.6665 13.6859 6.90655 13.6859 9.6716C13.6859 10.0683 13.7326 10.4533 13.8143 10.815C9.66084 10.6049 5.96244 8.60991 3.50073 5.58819C3.06905 6.3232 2.82405 7.18655 2.82405 8.09657C2.82405 9.83493 3.69907 11.375 5.05242 12.25C4.22408 12.25 3.45406 12.0166 2.77738 11.6666V11.7016C2.77738 14.1283 4.50408 16.1584 6.79079 16.6134C6.05662 16.8143 5.28587 16.8423 4.53908 16.6951C4.85596 17.6896 5.47656 18.5599 6.31363 19.1835C7.15071 19.8071 8.16217 20.1528 9.20584 20.1718C7.4367 21.5723 5.24376 22.3294 2.98739 22.3185C2.59071 22.3185 2.19404 22.2952 1.79736 22.2485C4.01407 23.6719 6.65079 24.5002 9.47417 24.5002C18.6677 24.5002 23.7194 16.8701 23.7194 10.2549C23.7194 10.0333 23.7194 9.82327 23.7078 9.6016C24.6878 8.90158 25.5278 8.0149 26.2045 6.99988Z" fill="#0C0534"/>
</svg>
