<svg width="24" height="32" viewBox="0 0 24 32" fill="none" xmlns="http://www.w3.org/2000/svg">
<g clip-path="url(#clip0_1701_18331)">
<path d="M11.3747 12.5625C11.3747 12.9769 11.2101 13.3743 10.9171 13.6674C10.6241 13.9604 10.2266 14.125 9.81223 14.125C9.39783 14.125 9.0004 13.9604 8.70737 13.6674C8.41435 13.3743 8.24973 12.9769 8.24973 12.5625C8.24973 12.1481 8.41435 11.7507 8.70737 11.4576C9.0004 11.1646 9.39783 11 9.81223 11C10.2266 11 10.6241 11.1646 10.9171 11.4576C11.2101 11.7507 11.3747 12.1481 11.3747 12.5625ZM14.0154 15.0956C13.9567 15.0663 13.8904 15.0561 13.8257 15.0665C13.7609 15.0769 13.7011 15.1075 13.6547 15.1537L11.336 18.0975L9.67348 16.365C9.61345 16.325 9.54145 16.3071 9.46969 16.3141C9.39792 16.3212 9.33081 16.3529 9.27973 16.4037L7.00098 19.125V20.375C7.00098 20.5408 7.06682 20.6997 7.18403 20.8169C7.30125 20.9342 7.46022 21 7.62598 21H16.376C16.4581 21 16.5393 20.9838 16.6152 20.9524C16.691 20.921 16.7599 20.875 16.8179 20.8169C16.876 20.7589 16.922 20.69 16.9534 20.6142C16.9848 20.5383 17.001 20.4571 17.001 20.375V17.5625L14.0154 15.0956Z" fill="#0C0534"/>
</g>
<rect x="0.25" y="0.25" width="23.5" height="31.5" rx="2.41667" stroke="black" stroke-width="0.5"/>
<defs>
<clipPath id="clip0_1701_18331">
<rect width="10" height="10" fill="white" transform="translate(7 11)"/>
</clipPath>
</defs>
</svg>
